<svg version="1.1" id="Layer_1" xmlns="http://www.w3.org/2000/svg" x="0" y="0" viewBox="0 0 61 61" style="enable-background:new 0 0 61 61" xml:space="preserve"><style>.st2,.st8{fill:#546e7a;stroke:#424242;stroke-linecap:round;stroke-linejoin:round;stroke-miterlimit:10}.st8{fill:#cfd8dc}</style><g id="_x33_D_Glasses"><circle class="st8" cx="7" cy="32" r="6"/><path class="st8" d="M39 60.5H25c-9.9 0-18-8.1-18-18v-27h50v27c0 9.9-8.1 18-18 18z"/><path d="M55 42.5c0 8.8-7.2 16-16 16" style="fill:none;stroke:#b0bec5;stroke-linecap:round;stroke-linejoin:round;stroke-miterlimit:10"/><path class="st2" d="m57 30.5-38-15V32H7V15.5c0-8.3 6.7-15 15-15h20c8.3 0 15 6.7 15 15v15z"/><path d="M9 15.5c0-7.2 5.8-13 13-13" style="fill:none;stroke:#78909c;stroke-linecap:round;stroke-linejoin:round;stroke-miterlimit:10"/><path d="M45 44.1c0 5.5-4.5 10-10 10s-10-4.5-10-10h20z" style="fill:#eceff1;stroke:#424242;stroke-linecap:round;stroke-linejoin:round;stroke-miterlimit:10"/><path d="M13 25H3c-.6 0-1-.4-1-1v-2.5c0-.6.4-1 1-1h10V25z" style="fill:#455a64;stroke:#424242;stroke-linecap:round;stroke-linejoin:round;stroke-miterlimit:10"/><path class="st2" d="M27.5 40.5H13c-1.7 0-3-1.3-3-3v-14c0-1.7 1.3-3 3-3h19c1.7 0 3 1.3 3 3v8c0 .6-.2 1.3-.6 1.8l-4.5 6c-.6.8-1.5 1.2-2.4 1.2z"/><path d="M32 23.5v8l-4.5 6H13v-14h19" style="fill:#ec407a;stroke:#424242;stroke-linecap:round;stroke-linejoin:round;stroke-miterlimit:10"/><path style="fill:none;stroke:#f48fb1;stroke-linecap:round;stroke-linejoin:round;stroke-miterlimit:10" d="M15 25.5v10"/><path class="st2" d="M42.5 40.5H57c1.7 0 3-1.3 3-3v-14c0-1.7-1.3-3-3-3H38c-1.7 0-3 1.3-3 3v8c0 .6.2 1.3.6 1.8l4.5 6c.6.8 1.5 1.2 2.4 1.2z"/><path d="M38 23.5h19v14H42.5l-4.5-6v-8" style="fill:#26c6da;stroke:#424242;stroke-linecap:round;stroke-linejoin:round;stroke-miterlimit:10"/><path style="fill:none;stroke:#00acc1;stroke-linecap:round;stroke-linejoin:round;stroke-miterlimit:10" d="M55 25.5v10"/><path style="fill:none;stroke:#d81b60;stroke-linecap:round;stroke-linejoin:round;stroke-miterlimit:10" d="M30 25.5v5"/><path style="fill:none;stroke:#80deea;stroke-linecap:round;stroke-linejoin:round;stroke-miterlimit:10" d="M40 25.5v5"/></g></svg>